HIERARCHY
ROOT Hips
{
  OFFSET 0 0 0
  CHANNELS 6 Xposition Yposition Zposition Zrotation Yrotation Xrotation
  JOINT LeftThigh
  {
    OFFSET 8.409438 0 -5.917753
    CHANNELS 3 Zrotation Yrotation Xrotation
    JOINT LeftLeg
    {
      OFFSET 0 0 -42.358652
      CHANNELS 3 Zrotation Yrotation Xrotation
      JOINT LeftFoot
      {
        OFFSET 0 0 -39.357303
        CHANNELS 3 Zrotation Yrotation Xrotation
      }
    }
  }
  JOINT RightThigh
  {
    OFFSET -8.409438 0 -5.917753
    CHANNELS 3 Zrotation Yrotation Xrotation
    JOINT RightLeg
    {
      OFFSET 0 0 -42.358652
      CHANNELS 3 Zrotation Yrotation Xrotation
      JOINT RightFoot
      {
        OFFSET 0 0 -39.357303
        CHANNELS 3 Zrotation Yrotation Xrotation
      }
    }
  }
  JOINT SpineLow
  {
    OFFSET 0 0 4.719101
    CHANNELS 3 Zrotation Yrotation Xrotation
    JOINT SpineMid
    {
      OFFSET 0 0 12.899191
      CHANNELS 3 Zrotation Yrotation Xrotation
      JOINT Chest
      {
        OFFSET 0 0 12.899191
        CHANNELS 3 Zrotation Yrotation Xrotation
        JOINT LeftShoulder
        {
          OFFSET 7.550562 1.41573 9.438202
          CHANNELS 3 Zrotation Yrotation Xrotation
          JOINT LeftArm
          {
            OFFSET 9.155056 0 4.247191
            CHANNELS 3 Zrotation Yrotation Xrotation
            JOINT LeftForearm
            {
              OFFSET 0 0 25.771955
              CHANNELS 3 Zrotation Yrotation Xrotation
              JOINT LeftHand
              {
                OFFSET 0 0 25.197169
                CHANNELS 3 Zrotation Yrotation Xrotation
              }
            }
          }
        }
        JOINT RightShoulder
        {
          OFFSET -7.550562 1.41573 9.438202
          CHANNELS 3 Zrotation Yrotation Xrotation
          JOINT RightArm
          {
            OFFSET -9.155056 0 4.247191
            CHANNELS 3 Zrotation Yrotation Xrotation
            JOINT RightForearm
            {
              OFFSET 0 0 -25.771955
              CHANNELS 3 Zrotation Yrotation Xrotation
              JOINT RightHand
              {
                OFFSET 0 0 -25.197169
                CHANNELS 3 Zrotation Yrotation Xrotation
              }
            }
          }
        }
        JOINT Neck
        {
          OFFSET 0 0 15.101124
          CHANNELS 3 Zrotation Yrotation Xrotation
          JOINT Head
          {
            OFFSET 0 0 11.325843
            CHANNELS 3 Zrotation Yrotation Xrotation
            End Site
            {
              OFFSET 0 0 14.157303
            }
          }
        }
      }
    }
  }
}
MOTION
Frames: 5
Frame Time: 0.0
0.0  101.685394  0.0  4.792916  11.76611  -98.536374  37.378718  -23.601891  25.465743  -9.455432  4.915617  30.233656  -14.427499  -6.614125  -11.518091  -6.175174  1.933725  -36.687491  1.76925  13.703568  51.09537  22.111139  1.15272  3.249075  -2.075181  1.582805  2.760261  -5.491035  4.553227  7.41333  -5.491035  4.553227  7.413331  -16.289896  23.515315  2.040843  167.688085  68.46998  -137.486485  -38.588965  -45.012892  77.894965  33.623272  -26.374041  15.372959  17.329319  -8.943181  8.137389  134.410855  53.321355  77.717688  -38.372947  16.331491  -94.617727  61.931183  1.098097  44.557423  8.523061  -0.411471  -0.781344  6.391754  -0.319575  -0.5804  
0.0  101.685394  0.0  4.631732  11.514555  -98.774627  37.683933  -23.847066  25.300941  -9.710991  4.786269  30.056059  -14.063124  -6.357766  -11.205706  -5.903534  2.052729  -36.465615  1.402532  13.780454  50.709844  22.255727  1.077945  3.393685  -2.055259  1.552936  2.768535  -5.439137  4.470221  7.439547  -5.439137  4.47022  7.439547  -15.792915  23.479995  2.104881  166.371823  68.096269  -138.456066  -39.127183  -43.574297  79.798174  35.120909  -25.748509  13.885665  17.156155  -8.890092  8.154697  134.522176  52.691787  77.763016  -38.770821  17.031877  -94.356199  61.774052  1.737154  43.798591  8.55427  -0.319052  -0.743656  6.415309  -0.249757  -0.553403  
0.0  101.685394  0.0  4.571758  11.464662  -98.845063  37.952049  -24.02669  25.409532  -9.825964  4.636129  29.71036  -13.946006  -6.282919  -10.963853  -5.719146  2.148533  -36.335374  1.207475  13.783082  50.368206  22.163121  1.048872  3.518911  -2.018849  1.542447  2.781546  -5.339819  4.438592  7.478429  -5.339819  4.438591  7.478429  -15.702038  23.353277  2.01855  165.370276  67.749782  -139.295456  -39.505678  -43.205401  80.090357  34.540089  -25.803769  14.149816  16.999013  -8.903798  8.179618  134.230543  52.401738  77.891708  -39.126749  17.46466  -94.955138  61.857815  1.80623  43.061709  8.411184  -0.325742  -0.788058  6.307964  -0.255212  -0.58669  
0.0  101.685394  0.0  4.428384  11.281884  -99.016473  38.042193  -24.142909  25.144264  -9.79335  4.424409  29.632715  -13.667789  -5.97085  -10.58209  -5.511882  2.219309  -36.08546  1.103401  13.564226  50.070296  21.915655  1.084351  3.600665  -1.972076  1.512867  2.788974  -5.214623  4.35326  7.504039  -5.214623  4.35326  7.504038  -15.604728  23.273768  2.013564  164.534351  67.328652  -139.853152  -39.600158  -42.884297  80.214794  34.297877  -25.771558  14.325602  16.240549  -8.92374  7.976936  134.122823  51.693267  77.502289  -39.393203  18.121846  -94.926027  61.951207  2.472339  41.915361  8.194394  -0.294754  -0.850562  6.145386  -0.232521  -0.634102  
0.0  101.685394  0.0  4.35114  11.313483  -99.079842  37.991469  -24.128107  25.20212  -9.620863  4.229934  29.470067  -13.58564  -5.918872  -10.349095  -5.523308  2.196079  -35.93696  1.100983  13.47791  49.772291  21.710164  1.102659  3.698721  -1.946842  1.504269  2.783481  -5.146948  4.326562  7.491319  -5.146948  4.326562  7.491318  -15.426175  23.223543  2.091233  163.882175  67.036651  -140.277925  -39.393943  -42.793549  80.074149  34.265268  -25.649718  14.58697  16.165836  -9.016675  8.126298  133.274593  51.560973  77.395981  -39.745438  18.528888  -95.732358  62.177187  2.636523  40.718545  8.003086  -0.391546  -0.856078  6.001757  -0.304933  -0.637058  
